<svg width="48" height="48" viewBox="0 0 48 48" fill="none" xmlns="http://www.w3.org/2000/svg">
<path d="M33 9V9.33375C33 10.8094 31.8094 12 30.3375 12H17.6625C16.1906 12 14.9156 10.8094 14.9156 9.33375V9C14.9156 4.02937 18.9469 0 23.9156 0C28.9688 0 33 4.02937 33 9ZM3.87844 9.88125C5.05031 8.7075 6.94969 8.7075 8.12156 9.88125L14.1188 15.8812C14.1844 15.9375 14.2406 16.0031 14.2969 16.0687C15.6375 15.3844 17.1469 15 18.6656 15H29.25C30.8531 15 32.3625 15.3844 33.7031 16.0687C33.7594 16.0031 33.8156 15.9375 33.8812 15.8812L39.8812 9.88125C41.0531 8.7075 42.9469 8.7075 44.1188 9.88125C45.2906 11.0531 45.2906 12.9469 44.1188 14.1187L38.1188 20.1187C37.9781 20.1844 37.9969 20.2406 37.9313 20.2969C38.5031 21.4219 38.8688 22.6781 38.9719 24H45C46.6594 24 48 25.3406 48 27C48 28.6594 46.6594 30 45 30H39C39 32.3062 38.4844 34.4812 37.5563 36.4312C37.7531 36.5531 37.95 36.7031 38.1188 36.8812L44.1188 42.8812C45.2906 44.0531 45.2906 45.9469 44.1188 47.1187C42.9469 48.2906 41.0531 48.2906 39.8812 47.1187L33.9656 41.2125C31.6687 43.2562 28.7344 44.6062 25.5 44.925V22.5C25.5 21.675 24.825 21 23.9156 21C23.175 21 22.4156 21.675 22.4156 22.5V44.925C19.2656 44.6062 16.3312 43.2562 14.0344 41.2125L8.12156 47.1187C6.94969 48.2906 5.05031 48.2906 3.87844 47.1187C2.7075 45.9469 2.7075 44.0531 3.87844 42.8812L9.88125 36.8812C10.05 36.7031 10.2469 36.5531 10.4438 36.4312C9.51562 34.4812 9 32.3062 9 30H3C1.34344 30 0 28.6594 0 27C0 25.3406 1.34344 24 3 24H9.02813C9.12938 22.6781 9.49687 21.4219 10.0688 20.2969C10.0031 20.2406 9.9375 20.1844 9.88125 20.1187L3.87844 14.1187C2.7075 12.9469 2.7075 11.0531 3.87844 9.88125Z" fill="white"/>
</svg>
