<svg viewBox="0 0 40 35" fill="none" xmlns="http://www.w3.org/2000/svg">
    <path d="M26.3 9.59998H13.7C7.23827 9.59998 2 14.8382 2 21.3C2 27.7617 7.23827 33 13.7 33H26.3C32.7617 33 38 27.7617 38 21.3C38 14.8382 32.7617 9.59998 26.3 9.59998Z"
          stroke="white" stroke-width="4"/>
    <path d="M20 33C23.9765 33 27.2 27.7617 27.2 21.3C27.2 14.8382 23.9765 9.59998 20 9.59998C16.0236 9.59998 12.8 14.8382 12.8 21.3C12.8 27.7617 16.0236 33 20 33Z"
          stroke="white" stroke-width="4"/>
    <path d="M25.4 2.40002H22.7C21.9839 2.40002 21.2972 2.68449 20.7908 3.19084C20.2845 3.69718 20 4.38394 20 5.10002V9.60002"
          stroke="white" stroke-width="4" stroke-linecap="round" stroke-linejoin="round"/>
</svg>
