<svg viewBox="0 0 48 48"  xmlns="http://www.w3.org/2000/svg">
<path d="M43.2656 13.2938C42.6373 11.8389 41.7313 10.5206 40.5984 9.4125C39.4647 8.30112 38.128 7.41793 36.6609 6.81094C35.1397 6.17903 33.5082 5.85559 31.8609 5.85938C29.55 5.85938 27.2953 6.49219 25.3359 7.6875C24.8672 7.97344 24.4219 8.2875 24 8.62969C23.5781 8.2875 23.1328 7.97344 22.6641 7.6875C20.7047 6.49219 18.45 5.85938 16.1391 5.85938C14.475 5.85938 12.8625 6.17813 11.3391 6.81094C9.86719 7.42032 8.54063 8.29688 7.40156 9.4125C6.26717 10.5193 5.36099 11.838 4.73438 13.2938C4.08281 14.8078 3.75 16.4156 3.75 18.0703C3.75 19.6313 4.06875 21.2578 4.70156 22.9125C5.23125 24.2953 5.99063 25.7297 6.96094 27.1781C8.49844 29.4703 10.6125 31.8609 13.2375 34.2844C17.5875 38.3016 21.8953 41.0766 22.0781 41.1891L23.1891 41.9016C23.6813 42.2156 24.3141 42.2156 24.8063 41.9016L25.9172 41.1891C26.1 41.0719 30.4031 38.3016 34.7578 34.2844C37.3828 31.8609 39.4969 29.4703 41.0344 27.1781C42.0047 25.7297 42.7688 24.2953 43.2938 22.9125C43.9266 21.2578 44.2453 19.6313 44.2453 18.0703C44.25 16.4156 43.9172 14.8078 43.2656 13.2938ZM24 38.1938C24 38.1938 7.3125 27.5016 7.3125 18.0703C7.3125 13.2938 11.2641 9.42188 16.1391 9.42188C19.5656 9.42188 22.5375 11.3344 24 14.1281C25.4625 11.3344 28.4344 9.42188 31.8609 9.42188C36.7359 9.42188 40.6875 13.2938 40.6875 18.0703C40.6875 27.5016 24 38.1938 24 38.1938Z"/>
</svg>
