<svg width="67" height="67" viewBox="0 0 67 67" fill="none" xmlns="http://www.w3.org/2000/svg">
<path d="M23.1032 33.5C23.1048 28.5357 21.7919 23.6595 19.2978 19.3672L18.3007 17.632C20.3909 17.1345 22.5207 16.8215 24.6657 16.6963C27.5367 14.4848 31.8158 11.8611 36.7492 11.0262L39.7812 10.4688L38.0317 18.5637C43.4846 20.4141 48.295 24.1723 51.4788 26.7581C52.0947 26.2425 52.7394 25.7387 53.4129 25.2467C58.6093 21.4518 64.2219 21.0854 64.4574 21.0723L67 20.9375L66.6506 23.4644C66.6127 23.7261 65.7621 29.3177 62.5089 33.4778C65.7621 37.6391 66.6074 43.2268 66.6506 43.4924L67 46.0625L64.4574 45.8845C64.2219 45.8714 58.6093 45.5063 53.4129 41.7101C52.7516 41.2277 52.1165 40.7317 51.5076 40.2222C48.3185 42.8172 43.5068 46.582 38.0474 48.4324L39.7812 56.5312L36.7492 55.979C31.8433 55.1494 27.5786 52.5243 24.7102 50.3102C22.5353 50.1844 20.3757 49.8678 18.2562 49.3641L19.2913 47.6394C21.7882 43.3455 23.1034 38.467 23.1032 33.5Z" fill="white"/>
<path d="M1.62396 29.0181C2.38949 27.7252 3.78837 25.7597 6.09804 23.747C8.50238 21.6764 11.2474 20.0382 14.2113 18.9052L15.673 21.4609C17.795 25.1148 18.9136 29.2646 18.9157 33.4899C18.9178 37.7152 17.8032 41.8661 15.6848 45.522L14.1472 48.083C11.2142 46.9637 8.49543 45.3485 6.10982 43.3079C1.95634 39.7119 -3.8147e-06 35.2012 -3.8147e-06 33.5C-3.8147e-06 31.8891 1.04687 30.0008 1.62396 29.0181ZM12.5625 33.5C12.9766 33.5 13.3814 33.3772 13.7257 33.1471C14.07 32.9171 14.3384 32.5901 14.4969 32.2075C14.6553 31.8249 14.6968 31.4039 14.616 30.9978C14.5352 30.5916 14.3358 30.2186 14.043 29.9257C13.7502 29.6329 13.3771 29.4335 12.971 29.3527C12.5648 29.2719 12.1438 29.3134 11.7613 29.4719C11.3787 29.6303 11.0517 29.8987 10.8216 30.243C10.5915 30.5873 10.4687 30.9921 10.4687 31.4062C10.4687 31.9615 10.6893 32.4941 11.082 32.8867C11.4746 33.2794 12.0072 33.5 12.5625 33.5Z" fill="white"/>
</svg>
