<svg viewBox="0 0 42 42"  xmlns="http://www.w3.org/2000/svg">
<path d="M19.1441 3.93749C19.6364 3.44538 20.3039 3.16893 21 3.16893C21.6961 3.16893 22.3636 3.44538 22.8559 3.93749L28.875 9.95662V6.56249C28.875 6.2144 29.0133 5.88056 29.2594 5.63442C29.5056 5.38828 29.8394 5.24999 30.1875 5.24999H32.8125C33.1606 5.24999 33.4944 5.38828 33.7406 5.63442C33.9867 5.88056 34.125 6.2144 34.125 6.56249V15.2066L40.3042 21.3832C40.5504 21.6297 40.6885 21.9638 40.6882 22.3121C40.688 22.6604 40.5494 22.9943 40.3029 23.2404C40.0565 23.4865 39.7224 23.6247 39.3741 23.6244C39.0258 23.6242 38.6919 23.4856 38.4457 23.2391L21 5.79337L3.55425 23.2391C3.30814 23.4856 2.97422 23.6242 2.62593 23.6244C2.27764 23.6247 1.94351 23.4865 1.69706 23.2404C1.45061 22.9943 1.31201 22.6604 1.31177 22.3121C1.31152 21.9638 1.44964 21.6297 1.69575 21.3832L19.1441 3.93749Z" />
<path d="M36.75 24.3941L21 8.64412L5.25 24.3941V35.4375C5.25 36.4818 5.66484 37.4833 6.40327 38.2217C7.14169 38.9602 8.14321 39.375 9.1875 39.375H32.8125C33.8568 39.375 34.8583 38.9602 35.5967 38.2217C36.3352 37.4833 36.75 36.4818 36.75 35.4375V24.3941ZM21 22.2652C25.368 17.8736 36.2906 25.557 21 35.4375C5.70938 25.557 16.632 17.8736 21 22.2652Z" />
</svg>
