<svg width="40" height="40" viewBox="0 0 114 114" fill="none" xmlns="http://www.w3.org/2000/svg">
    <path d="M69.5969 64.676C69.4341 62.2125 69.1732 59.7563 68.8147 57.3136C67.6881 49.7907 65.6848 42.4256 62.8456 35.3685C61.1767 31.255 59.8594 28.899 59.8594 28.899L48.4182 30.3747C48.4182 30.3747 49.7387 33.1297 51.1669 38.5289C51.7464 40.7202 52.3417 43.3549 52.8769 46.4297C53.1492 47.9814 53.4026 49.6344 53.6306 51.4109C53.9472 53.8841 54.2101 56.5789 54.3969 59.4827C54.5046 61.1231 54.5806 62.833 54.6312 64.6095C54.6502 65.2555 54.6787 65.8794 54.6882 66.5444C54.708 68.65 54.5832 70.7544 54.3146 72.8429C54.0802 74.7429 53.7382 76.6334 53.3297 78.5081C52.7507 81.1536 52.0427 83.7692 51.2081 86.3455C50.5713 88.3068 49.8797 90.2498 49.1339 92.1722C48.0446 94.9937 46.9489 97.5302 46.0021 99.6424C44.4124 103.186 43.2439 105.542 43.2439 106.033C43.2439 107.584 44.3522 110.491 52.1011 112.429C64.2199 115.457 65.3884 110.463 65.3884 110.463C65.3884 110.463 66.1579 108.126 67.0541 103.522C67.4974 101.248 67.9692 98.4391 68.3967 95.0412C68.6532 93.0082 68.8907 90.7726 69.0997 88.3406C69.534 83.2175 69.7664 78.0793 69.7964 72.9379C69.8027 72.1589 69.8217 71.4052 69.8217 70.604C69.8217 68.5774 69.7267 66.6109 69.5969 64.676V64.676Z"
          fill="#FF9F47"/>
    <path d="M57.969 95.2154C53.5262 94.4427 50.692 93.1475 49.1372 92.1785C48.0479 95 46.9522 97.5365 46.0054 99.6487C48.906 101.229 52.5889 102.483 56.5852 103.176C58.8937 103.579 61.1832 103.781 63.3334 103.781C64.6444 103.781 65.8762 103.677 67.0574 103.528C67.5007 101.254 67.9725 98.4454 68.4 95.0475C66.994 95.5447 63.498 96.178 57.969 95.2154V95.2154ZM61.3257 80.4175C57.8645 80.0755 55.2014 79.3155 53.3299 78.5112C52.7509 81.1567 52.0428 83.7724 51.2082 86.3487C53.9442 87.381 57.1647 88.1252 60.534 88.4577C61.8925 88.5907 63.2415 88.6604 64.5557 88.6604C66.1454 88.6604 67.6527 88.5369 69.0999 88.3469C69.3152 85.8135 69.4957 83.068 69.6224 80.0977C67.6337 80.5252 64.8439 80.7627 61.3257 80.4175V80.4175ZM62.3042 73.663C64.9072 73.663 67.4659 73.4002 69.7965 72.941C69.8029 72.162 69.8219 71.4084 69.8219 70.6072C69.8219 68.5774 69.73 66.6109 69.597 64.676C67.9219 65.113 65.5279 65.5374 62.149 65.5817C58.7164 65.5659 56.3002 65.0909 54.6314 64.6127C54.6504 65.2587 54.6789 65.8825 54.6884 66.5475C54.7082 68.6531 54.5833 70.7576 54.3147 72.846C56.7309 73.3559 59.3972 73.6472 62.1079 73.6599L62.3042 73.663V73.663ZM61.5157 59.1692C64.0027 58.7931 66.4465 58.1726 68.8117 57.3167C68.4119 54.6437 67.8995 51.9887 67.2759 49.3589C65.7052 50.0049 63.479 50.7237 60.3694 51.1702C58.1396 51.5172 55.8766 51.5991 53.6275 51.414C53.9442 53.8872 54.207 56.582 54.3939 59.4859C54.8752 59.5049 55.3122 59.5777 55.8062 59.5777C57.6682 59.5809 59.6062 59.4415 61.5157 59.1692ZM65.5405 42.9685C64.7484 40.3984 63.8483 37.8628 62.8425 35.3685C61.082 36.2431 59.2396 36.9421 57.342 37.4554C55.3271 38.0337 53.2558 38.3936 51.1639 38.5289C51.7434 40.7202 52.3387 43.3549 52.8739 46.4297C55.1142 46.2232 57.3327 45.8248 59.5049 45.239C61.655 44.6437 63.6532 43.8457 65.5405 42.9685Z"
          fill="#FFD199"/>
    <path d="M103.265 13.6325C103.126 13.4394 89.0785 -5.34847 70.8574 2.89753C62.6843 6.59303 57.4086 12.6319 55.496 20.425C51.9335 15.4597 46.5185 12.3025 39.3681 11.0264C19.7379 7.52403 7.93895 29.2917 7.82178 29.5134C7.65078 29.8364 7.72361 30.2385 7.99911 30.4792C8.27461 30.7199 8.68628 30.7357 8.98395 30.5267C9.07261 30.4634 17.9963 24.2155 32.8701 26.8629C48.0733 29.5672 58.7323 32.2272 58.8399 32.2525C58.9782 32.286 59.1228 32.2823 59.2591 32.2417C59.3954 32.2011 59.5184 32.125 59.6158 32.0214C59.7171 31.9105 69.8125 21.0647 79.1003 16.8625C92.8405 10.6527 102.211 14.7757 102.299 14.8169C102.459 14.8886 102.638 14.9058 102.809 14.8657C102.979 14.8257 103.132 14.7306 103.243 14.5952C103.354 14.4604 103.417 14.2923 103.421 14.1177C103.425 13.9431 103.37 13.7723 103.265 13.6325V13.6325Z"
          fill="#01B187"/>
    <path d="M88.2992 24.1617C74.35 16.7897 63.444 20.3838 56.6484 24.8583C48.4942 23.3162 33.424 23.4048 20.6624 39.7638C4.88288 59.9893 18.7054 85.1802 18.8479 85.4335C18.9644 85.6378 19.1388 85.803 19.3491 85.9083C19.5595 86.0136 19.7962 86.0543 20.0296 86.0251C20.263 85.996 20.4826 85.8984 20.6605 85.7446C20.8385 85.5909 20.967 85.3878 21.0297 85.1612C21.0772 84.9902 25.8652 67.6812 37.9714 53.1208C44.539 45.2168 52.3797 37.9018 57.9467 33.0442C63.5264 33.9878 71.6489 36.043 79.6257 40.4985C95.3261 49.2797 102.533 64.1408 102.606 64.2897C102.711 64.5131 102.883 64.6982 103.098 64.8186C103.314 64.9391 103.561 64.9889 103.806 64.961C104.051 64.9338 104.281 64.832 104.465 64.6693C104.649 64.5067 104.778 64.2911 104.836 64.0522C104.899 63.7735 111.068 36.1855 88.2992 24.1617V24.1617Z"
          fill="#02E49C"/>
</svg>
