<svg viewBox="0 0 48 55" xmlns="http://www.w3.org/2000/svg">
<path d="M13.8857 22.2083C14.4482 25.5449 16.6307 28.3082 19.5911 29.7229C18.7821 27.6964 18.2464 25.0911 18.0857 22.2083H13.8857V22.2083ZM13.8857 18.7917H18.0782C18.2389 15.9089 18.7746 13.3058 19.5911 11.2771C16.6393 12.6951 14.4536 15.4604 13.8857 18.7917ZM24 30.6219C24.8357 29.8211 26.2286 26.9383 26.5071 22.2083H21.4821C21.7821 26.9383 23.175 29.8211 24 30.6219ZM28.4036 11.275C29.2286 13.3036 29.7643 15.9089 29.925 18.7917H34.1175C33.5464 15.4604 31.3714 12.6951 28.4036 11.275ZM41.1429 0H6.85714C3.06964 0 0 3.05898 0 6.83333V47.8333C0 51.6077 3.06964 54.6667 6.85714 54.6667H41.1429C44.9143 54.6667 48 51.5917 48 47.8333V6.83333C48 3.075 44.9143 0 41.1429 0ZM36 44.4167H12C11.0679 44.4167 10.2857 43.6479 10.2857 42.7083C10.2857 41.7688 11.0679 41 12 41H36C36.9375 41 37.7143 41.7741 37.7143 42.7083C37.7143 43.6426 36.9429 44.4167 36 44.4167ZM24 34.1667C16.4196 34.1667 10.2857 28.054 10.2857 20.5C10.2857 12.946 16.4196 6.83333 24 6.83333C31.5804 6.83333 37.7143 12.946 37.7143 20.5C37.7143 28.054 31.5857 34.1667 24 34.1667ZM28.4036 29.725C31.3629 28.3103 33.5464 25.5471 34.1089 22.2105H29.9164C29.7643 25.0911 29.2286 27.6964 28.4036 29.725ZM21.4929 18.7917H26.5157C26.2179 14.0724 24.8357 11.1896 24 10.3835C23.175 11.1896 21.7714 14.0724 21.4929 18.7917Z" />
</svg>
