<svg viewBox="0 0 45 53" xmlns="http://www.w3.org/2000/svg">
<path d="M42.3376 33.1209C41.9798 33.0773 41.6167 33.1157 41.276 33.2335C40.9352 33.3512 40.6257 33.5451 40.3708 33.8004C40.1159 34.0557 39.9224 34.3658 39.8049 34.7071C39.6874 35.0485 39.649 35.4122 39.6926 35.7706C39.6926 37.5459 37.0475 37.5459 37.0475 35.7706V29.6763L41.5441 28.3515C43.4485 27.4506 44.7445 25.6488 44.9826 23.5821C44.9826 9.27386 34.9315 0 22.5 0C10.0685 0 0.0174303 9.27386 0.0174303 23.5821C0.176131 25.7018 1.49864 27.5566 3.45594 28.3515L7.95245 29.6763V35.7706C7.95245 36.122 7.81312 36.459 7.5651 36.7074C7.31708 36.9559 6.9807 37.0954 6.62995 37.0954C6.2792 37.0954 5.94282 36.9559 5.6948 36.7074C5.44678 36.459 5.30745 36.122 5.30745 35.7706C5.35103 35.4122 5.31262 35.0485 5.1951 34.7071C5.07759 34.3658 4.88407 34.0557 4.62919 33.8004C4.37432 33.5451 4.06478 33.3512 3.72402 33.2335C3.38327 33.1157 3.02024 33.0773 2.66244 33.1209C2.30464 33.0773 1.94161 33.1157 1.60085 33.2335C1.2601 33.3512 0.95056 33.5451 0.695686 33.8004C0.440811 34.0557 0.247286 34.3658 0.129774 34.7071C0.0122614 35.0485 -0.0261564 35.4122 0.0174303 35.7706C-0.0224314 36.6511 0.121325 37.5303 0.439532 38.3521C0.757739 39.1738 1.24341 39.9201 1.86557 40.5434C2.48773 41.1666 3.23273 41.6532 4.05304 41.9719C4.87336 42.2907 5.75098 42.4347 6.62995 42.3948C10.3594 42.5538 13.4012 39.5066 13.2425 35.7706V31.0012H15.8875V46.1043C15.8875 47.8796 13.2425 47.8796 13.2425 46.1043C13.2861 45.7459 13.2476 45.3822 13.1301 45.0409C13.0126 44.6995 12.8191 44.3894 12.5642 44.1341C12.3093 43.8788 11.9998 43.6849 11.659 43.5672C11.3183 43.4495 10.9553 43.411 10.5975 43.4547C10.2397 43.411 9.87663 43.4495 9.53588 43.5672C9.19512 43.6849 8.88558 43.8788 8.63071 44.1341C8.37583 44.3894 8.18231 44.6995 8.0648 45.0409C7.94729 45.3822 7.90887 45.7459 7.95245 46.1043C7.87628 47.0057 7.99294 47.9129 8.29464 48.7655C8.59633 49.6181 9.07613 50.3964 9.70198 51.0484C10.3278 51.7004 11.0854 52.2112 11.924 52.5466C12.7625 52.8821 13.6629 53.0344 14.565 52.9935C18.2944 53.1525 21.3362 50.1053 21.1775 46.3693V31.7961H23.8225V46.3693C23.7826 47.2498 23.9264 48.129 24.2446 48.9507C24.5628 49.7725 25.0485 50.5188 25.6706 51.1421C26.2928 51.7653 27.0378 52.2519 27.8581 52.5706C28.6784 52.8894 29.5561 53.0334 30.435 52.9935C34.1645 53.1525 37.2062 50.1053 37.0475 46.3693C37.0475 42.8452 31.7575 42.8452 31.7575 46.3693C31.7575 48.1446 29.1125 48.1446 29.1125 46.3693V31.2662H31.7575V36.0356C31.7575 39.6391 34.7464 42.5538 38.37 42.3948C42.0995 42.5538 45.1413 39.5066 44.9826 35.7706C45.0262 35.4122 44.9877 35.0485 44.8702 34.7071C44.7527 34.3658 44.5592 34.0557 44.3043 33.8004C44.0494 33.5451 43.7399 33.3512 43.3991 33.2335C43.0584 33.1157 42.6954 33.0773 42.3376 33.1209ZM18.797 7.15412C16.8228 7.5863 14.9586 8.42099 13.3204 9.60621C11.6823 10.7914 10.3052 12.3018 9.27496 14.0433C8.82531 14.5732 7.95246 14.7587 7.42345 14.3082C7.14692 14.0945 6.96456 13.7811 6.91516 13.4347C6.86576 13.0883 6.95323 12.7362 7.15895 12.4535C9.69682 8.46468 13.6784 5.61571 18.268 4.50445C18.9821 4.45145 19.6169 4.9019 19.855 5.56432C20.0137 6.27973 19.5376 7.02164 18.797 7.15412Z" />
</svg>
