<svg viewBox="0 0 35 38" fill="none" xmlns="http://www.w3.org/2000/svg">
    <path d="M31.7959 19.8444C31.1476 19.4897 30.4619 19.2066 29.7511 19C30.4619 18.7934 31.1476 18.5103 31.7959 18.1556C33.2672 17.3157 34.3411 15.932 34.7812 14.3087C35.2214 12.6855 34.9918 10.9557 34.1429 9.5C33.2941 8.04426 31.8955 6.98177 30.2549 6.54626C28.6143 6.11076 26.8661 6.33793 25.3947 7.17778C24.7625 7.55476 24.1724 7.99705 23.6344 8.49722C23.8004 7.78728 23.8898 7.06193 23.9011 6.33333C23.9011 4.65363 23.2267 3.04272 22.0263 1.85499C20.8258 0.66726 19.1977 0 17.5 0C15.8023 0 14.1742 0.66726 12.9737 1.85499C11.7733 3.04272 11.0989 4.65363 11.0989 6.33333C11.1102 7.06193 11.1996 7.78728 11.3656 8.49722C10.8276 7.99705 10.2375 7.55476 9.60527 7.17778C8.13394 6.33793 6.38567 6.11076 4.74507 6.54626C3.10446 6.98177 1.7059 8.04426 0.857056 9.5C0.00821297 10.9557 -0.221381 12.6855 0.218782 14.3087C0.658945 15.932 1.73281 17.3157 3.20414 18.1556C3.85244 18.5103 4.53815 18.7934 5.24894 19C4.53815 19.2066 3.85244 19.4897 3.20414 19.8444C1.73281 20.6843 0.658945 22.068 0.218782 23.6913C-0.221381 25.3145 0.00821297 27.0443 0.857056 28.5C1.7059 29.9557 3.10446 31.0182 4.74507 31.4537C6.38567 31.8892 8.13394 31.6621 9.60527 30.8222C10.2375 30.4452 10.8276 30.0029 11.3656 29.5028C11.1996 30.2127 11.1102 30.9381 11.0989 31.6667C11.0989 33.3464 11.7733 34.9573 12.9737 36.145C14.1742 37.3327 15.8023 38 17.5 38C19.1977 38 20.8258 37.3327 22.0263 36.145C23.2267 34.9573 23.9011 33.3464 23.9011 31.6667C23.8898 30.9381 23.8004 30.2127 23.6344 29.5028C24.1724 30.0029 24.7625 30.4452 25.3947 30.8222C26.8661 31.6621 28.6143 31.8892 30.2549 31.4537C31.8955 31.0182 33.2941 29.9557 34.1429 28.5C34.9918 27.0443 35.2214 25.3145 34.7812 23.6913C34.3411 22.068 33.2672 20.6843 31.7959 19.8444ZM17.5 23.2222C16.656 23.2222 15.8309 22.9746 15.1291 22.5107C14.4274 22.0467 13.8804 21.3873 13.5574 20.6158C13.2344 19.8443 13.1499 18.9953 13.3146 18.1763C13.4792 17.3573 13.8857 16.6049 14.4825 16.0144C15.0793 15.4239 15.8397 15.0218 16.6675 14.8589C17.4953 14.696 18.3533 14.7796 19.1331 15.0992C19.9128 15.4187 20.5793 15.9599 21.0482 16.6543C21.5171 17.3486 21.7674 18.1649 21.7674 19C21.7627 20.1184 21.3116 21.1896 20.5124 21.9804C19.7131 22.7713 18.6303 23.2176 17.5 23.2222Z"
          fill="white"/>
</svg>
