<svg viewBox="0 0 38 38" fill="none" xmlns="http://www.w3.org/2000/svg">
    <path d="M19 7.6C19.5039 7.6 19.9872 7.39982 20.3435 7.0435C20.6998 6.68718 20.9 6.20391 20.9 5.7V1.9C20.9 1.39609 20.6998 0.912816 20.3435 0.556497C19.9872 0.200178 19.5039 0 19 0C18.4961 0 18.0128 0.200178 17.6565 0.556497C17.3002 0.912816 17.1 1.39609 17.1 1.9V5.7C17.1 6.20391 17.3002 6.68718 17.6565 7.0435C18.0128 7.39982 18.4961 7.6 19 7.6ZM36.1 17.1H32.3C31.7961 17.1 31.3128 17.3002 30.9565 17.6565C30.6002 18.0128 30.4 18.4961 30.4 19C30.4 19.5039 30.6002 19.9872 30.9565 20.3435C31.3128 20.6998 31.7961 20.9 32.3 20.9H36.1C36.6039 20.9 37.0872 20.6998 37.4435 20.3435C37.7998 19.9872 38 19.5039 38 19C38 18.4961 37.7998 18.0128 37.4435 17.6565C37.0872 17.3002 36.6039 17.1 36.1 17.1ZM7.6 19C7.6 18.4961 7.39982 18.0128 7.0435 17.6565C6.68718 17.3002 6.20391 17.1 5.7 17.1H1.9C1.39609 17.1 0.912816 17.3002 0.556497 17.6565C0.200178 18.0128 0 18.4961 0 19C0 19.5039 0.200178 19.9872 0.556497 20.3435C0.912816 20.6998 1.39609 20.9 1.9 20.9H5.7C6.20391 20.9 6.68718 20.6998 7.0435 20.3435C7.39982 19.9872 7.6 19.5039 7.6 19ZM8.018 5.7C7.64762 5.34978 7.1533 5.16104 6.64376 5.17529C6.13422 5.18954 5.65122 5.40562 5.301 5.776C4.95078 6.14637 4.76204 6.6407 4.77629 7.15024C4.79054 7.65978 5.00663 8.14278 5.377 8.493L8.113 11.134C8.29661 11.3113 8.51405 11.4498 8.75235 11.5412C8.99065 11.6326 9.24493 11.675 9.5 11.666C9.75594 11.665 10.009 11.6123 10.2441 11.5111C10.4792 11.4099 10.6914 11.2623 10.868 11.077C11.2219 10.721 11.4205 10.2395 11.4205 9.7375C11.4205 9.23555 11.2219 8.75399 10.868 8.398L8.018 5.7ZM28.5 11.666C28.9892 11.6641 29.4588 11.4735 29.811 11.134L32.547 8.493C32.8808 8.14426 33.0693 7.68155 33.0742 7.19885C33.0792 6.71615 32.9003 6.24966 32.5738 5.89412C32.2472 5.53858 31.7976 5.32065 31.3163 5.2846C30.8349 5.24854 30.3578 5.39707 29.982 5.7L27.246 8.398C26.8921 8.75399 26.6935 9.23555 26.6935 9.7375C26.6935 10.2395 26.8921 10.721 27.246 11.077C27.575 11.4242 28.0228 11.6345 28.5 11.666ZM19 30.4C18.4961 30.4 18.0128 30.6002 17.6565 30.9565C17.3002 31.3128 17.1 31.7961 17.1 32.3V36.1C17.1 36.6039 17.3002 37.0872 17.6565 37.4435C18.0128 37.7998 18.4961 38 19 38C19.5039 38 19.9872 37.7998 20.3435 37.4435C20.6998 37.0872 20.9 36.6039 20.9 36.1V32.3C20.9 31.7961 20.6998 31.3128 20.3435 30.9565C19.9872 30.6002 19.5039 30.4 19 30.4ZM29.887 26.866C29.5242 26.5158 29.0371 26.324 28.5329 26.3329C28.0287 26.3419 27.5487 26.5507 27.1985 26.9135C26.8483 27.2763 26.6565 27.7634 26.6654 28.2676C26.6744 28.7718 26.8832 29.2518 27.246 29.602L29.982 32.3C30.3342 32.6395 30.8038 32.8301 31.293 32.832C31.5476 32.8335 31.7999 32.7838 32.0349 32.6859C32.2699 32.588 32.4828 32.4438 32.661 32.262C32.8391 32.0854 32.9804 31.8752 33.0769 31.6437C33.1734 31.4122 33.223 31.1638 33.223 30.913C33.223 30.6622 33.1734 30.4138 33.0769 30.1823C32.9804 29.9508 32.8391 29.7406 32.661 29.564L29.887 26.866ZM8.113 26.866L5.377 29.507C5.19892 29.6836 5.05757 29.8938 4.96111 30.1253C4.86465 30.3568 4.81498 30.6052 4.81498 30.856C4.81498 31.1068 4.86465 31.3552 4.96111 31.5867C5.05757 31.8182 5.19892 32.0284 5.377 32.205C5.5552 32.3868 5.76813 32.531 6.00313 32.6289C6.23814 32.7268 6.49042 32.7765 6.745 32.775C7.21338 32.779 7.66672 32.6098 8.018 32.3L10.754 29.659C11.1168 29.3088 11.3256 28.8288 11.3346 28.3246C11.3435 27.8204 11.1517 27.3333 10.8015 26.9705C10.4513 26.6077 9.97128 26.3989 9.46709 26.3899C8.9629 26.381 8.47582 26.5728 8.113 26.923V26.866ZM19 11.4C17.4969 11.4 16.0275 11.8457 14.7777 12.6808C13.5279 13.5159 12.5537 14.7029 11.9785 16.0916C11.4033 17.4803 11.2528 19.0084 11.546 20.4827C11.8393 21.9569 12.5631 23.3111 13.626 24.374C14.6889 25.4369 16.0431 26.1607 17.5173 26.454C18.9916 26.7472 20.5197 26.5967 21.9084 26.0215C23.2971 25.4463 24.4841 24.4721 25.3192 23.2223C26.1543 21.9725 26.6 20.5031 26.6 19C26.6 16.9844 25.7993 15.0513 24.374 13.626C22.9487 12.2007 21.0156 11.4 19 11.4Z"
          fill="white"/>
</svg>
