<svg width="51" height="37" viewBox="0 0 51 37" fill="currentColor" xmlns="http://www.w3.org/2000/svg">
<path d="M15.3 18.5C20.2327 18.5 24.225 14.4881 24.225 9.53125C24.225 4.57441 20.2327 0.5625 15.3 0.5625C10.3673 0.5625 6.375 4.57441 6.375 9.53125C6.375 14.4881 10.3673 18.5 15.3 18.5ZM21.42 21.0625H20.7586C19.1011 21.8633 17.2603 22.3438 15.3 22.3438C13.3397 22.3438 11.5069 21.8633 9.84141 21.0625H9.18C4.11187 21.0625 0 25.1945 0 30.2875V32.5938C0 34.7158 1.71328 36.4375 3.825 36.4375H26.775C28.8867 36.4375 30.6 34.7158 30.6 32.5938V30.2875C30.6 25.1945 26.4881 21.0625 21.42 21.0625ZM38.25 18.5C42.4734 18.5 45.9 15.0566 45.9 10.8125C45.9 6.56836 42.4734 3.125 38.25 3.125C34.0266 3.125 30.6 6.56836 30.6 10.8125C30.6 15.0566 34.0266 18.5 38.25 18.5ZM42.075 21.0625H41.7722C40.6645 21.4469 39.4931 21.7031 38.25 21.7031C37.0069 21.7031 35.8355 21.4469 34.7278 21.0625H34.425C32.7994 21.0625 31.3012 21.535 29.9864 22.2957C31.9308 24.4018 33.15 27.1965 33.15 30.2875V33.3625C33.15 33.5387 33.1102 33.7068 33.1022 33.875H47.175C49.2867 33.875 51 32.1533 51 30.0312C51 25.0744 47.0077 21.0625 42.075 21.0625Z" fill="white"/>
</svg>
