<svg width="31" height="34" viewBox="0 0 31 34" fill="none" xmlns="http://www.w3.org/2000/svg">
<path d="M14.1816 0V4.65931L11.1727 1.67385L9.27454 3.55692L14.1816 8.41762V14.7115L8.74031 11.4828L7.00834 4.82146L4.45326 5.47531L5.52568 9.56185L1.48398 7.15308L0.123995 9.35915L4.24616 11.8111L0 12.8742L0.659546 15.4072L7.4199 13.6915L12.9865 17L7.42122 20.3098L0.660865 18.5954L0.001319 21.1284L4.24748 22.1915L0.125314 24.6435L1.4853 26.8495L5.52568 24.4395L4.45326 28.526L7.00966 29.1798L8.74031 22.5185L14.1816 19.2885V25.5824L9.27586 30.4444L11.1727 32.3248L14.1816 29.3407V34H16.8198V29.3407L19.8286 32.3248L21.7255 30.4444L16.8198 25.5824V19.2885L22.261 22.5172L23.993 29.1772L26.5481 28.5234L25.4756 24.4368L29.516 26.8482L30.876 24.6422L26.7538 22.1902L31 21.1271L30.3405 18.5941L23.5801 20.3098L18.0149 17L23.5801 13.6902L30.3405 15.4059L31 12.8729L26.7538 11.8098L30.876 9.35785L29.516 7.15177L25.4756 9.56315L26.5481 5.47531L23.9917 4.82146L22.261 11.4828L16.8198 14.7115V8.41762L21.7255 3.55562L19.8273 1.67385L16.8198 4.65931V0H14.1816Z" fill="white"/>
</svg>
