<svg viewBox="0 0 467 520" xmlns="http://www.w3.org/2000/svg">

    <path d="M461.615 294.4a23.922 23.922 0 0 1-2.395 18.21 23.929 23.929 0 0 1-14.57 11.18l-31.46 8.43 32.96 19.03c11.465 6.55 15.465 21.25 8.865 32.75s-21.38 15.41-32.86 8.783l-32.96-19.03 8.43 31.46c3.432 12.81-4.162 25.96-16.97 29.39-12.808 3.43-25.96-4.162-29.39-16.97l-20.85-77.82-73.2-42.213v84.49l56.97 56.97c9.375 9.375 9.375 24.56 0 33.94-4.67 4.7-10.87 7-16.97 7-3.152 0-6.273-.621-9.184-1.828a23.984 23.984 0 0 1-7.786-5.203l-23.03-23.069V488c0 13.25-10.75 24-24 24s-24-10.75-24-24v-38.06l-23.03 23.03c-9.375 9.375-24.56 9.375-33.94 0-9.38-9.375-9.375-24.56 0-33.94l56.97-56.93v-84.5l-73.17 42.25-20.85 77.82c-3.432 12.81-16.58 20.4-29.39 16.97-12.81-3.43-20.4-16.58-16.97-29.39l8.43-31.46-32.96 19.03c-11.48 6.58-26.24 2.68-32.87-8.82-6.63-11.5-2.615-26.16 8.859-32.79l32.96-19.03-31.46-8.43c-12.81-3.432-20.4-16.58-16.97-29.39 3.43-12.81 16.58-20.4 29.39-16.97l77.82 20.85 73.181-43.14-73.2-41.3-77.79 20.8c-12.81 3.4-25.96-4.2-29.39-17-3.43-12.8 4.162-25.96 16.97-29.39l31.46-8.432-32.97-18.978c-11.47-6.6-15.48-21.3-8.86-32.8 6.62-11.5 21.38-15.41 32.86-8.785l32.96 19.03-8.42-31.445c-3.44-12.82 4.16-25.97 16.98-29.41 12.82-3.44 25.96 4.162 29.39 16.97l20.85 77.82 73.16 42.22v-84.5l-57-56.93c-9.375-9.375-9.375-24.56 0-33.94 9.375-9.38 24.56-9.375 33.94 0l23.06 23.03V24c0-13.25 10.8-24 24-24s24 10.75 24 24v38.06l23.03-23.03c9.375-9.375 24.56-9.375 33.94 0 9.38 9.375 9.375 24.56 0 33.94l-56.97 56.93v84.49l73.17-42.25 20.85-77.82c3.432-12.81 16.58-20.4 29.39-16.97a23.911 23.911 0 0 1 14.57 11.18 23.932 23.932 0 0 1 2.395 18.21l-8.43 31.46 32.96-19.03c11.495-6.57 26.295-2.67 32.895 8.83 6.6 11.5 2.615 26.16-8.859 32.78l-32.96 19.03 31.46 8.432c12.81 3.432 20.4 16.58 16.97 29.39-3.43 12.81-16.58 20.4-29.39 16.97l-77.82-20.85-73.201 41.348 73.17 42.25 77.82-20.85c12.81-3.4 25.11 5.1 29.41 17.9Z"
          fill="white"/>

</svg>